<mxfile host="Electron" agent="Mozilla/5.0 (X11; Linux x86_64) AppleWebKit/537.36 (KHTML, like Gecko) draw.io/26.0.4 Chrome/128.0.6613.186 Electron/32.2.5 Safari/537.36" version="26.0.4">
  <diagram name="Page-1" id="C_hwhFTiAYiyGxV6AMlb">
    <mxGraphModel dx="1114" dy="1027" grid="1" gridSize="10" guides="1" tooltips="1" connect="1" arrows="1" fold="1" page="1" pageScale="1" pageWidth="850" pageHeight="1100" math="0" shadow="0">
      <root>
        <mxCell id="0" />
        <mxCell id="1" parent="0" />
        <mxCell id="2mUuE8GtbuamiR8TgT-m-1" value="Few users" style="sketch=0;outlineConnect=0;fontColor=#232F3E;gradientColor=none;fillColor=#232F3D;strokeColor=none;dashed=0;verticalLabelPosition=bottom;verticalAlign=top;align=center;html=1;fontSize=12;fontStyle=0;aspect=fixed;pointerEvents=1;shape=mxgraph.aws4.user;" vertex="1" parent="1">
          <mxGeometry x="450" y="320" width="78" height="78" as="geometry" />
        </mxCell>
        <mxCell id="2mUuE8GtbuamiR8TgT-m-2" value="Many users" style="sketch=0;outlineConnect=0;fontColor=#232F3E;gradientColor=none;fillColor=#232F3D;strokeColor=none;dashed=0;verticalLabelPosition=bottom;verticalAlign=top;align=center;html=1;fontSize=12;fontStyle=0;aspect=fixed;pointerEvents=1;shape=mxgraph.aws4.users;" vertex="1" parent="1">
          <mxGeometry x="450" y="164.88" width="78" height="78" as="geometry" />
        </mxCell>
        <mxCell id="2mUuE8GtbuamiR8TgT-m-32" value="&lt;span style=&quot;color: rgb(255, 0, 0); font-weight: 700;&quot;&gt;&amp;nbsp;THROTTLE!&amp;nbsp;&lt;/span&gt;" style="edgeStyle=orthogonalEdgeStyle;rounded=0;orthogonalLoop=1;jettySize=auto;html=1;" edge="1" parent="1" source="2mUuE8GtbuamiR8TgT-m-3" target="2mUuE8GtbuamiR8TgT-m-31">
          <mxGeometry relative="1" as="geometry" />
        </mxCell>
        <mxCell id="2mUuE8GtbuamiR8TgT-m-3" value="SDK / CLI" style="sketch=0;outlineConnect=0;fontColor=#232F3E;gradientColor=none;fillColor=#232F3D;strokeColor=none;dashed=0;verticalLabelPosition=bottom;verticalAlign=top;align=center;html=1;fontSize=12;fontStyle=0;aspect=fixed;pointerEvents=1;shape=mxgraph.aws4.external_sdk;" vertex="1" parent="1">
          <mxGeometry x="450" y="472" width="68" height="78" as="geometry" />
        </mxCell>
        <mxCell id="2mUuE8GtbuamiR8TgT-m-4" value="" style="sketch=0;outlineConnect=0;fontColor=#232F3E;gradientColor=none;fillColor=#8C4FFF;strokeColor=none;dashed=0;verticalLabelPosition=bottom;verticalAlign=top;align=center;html=1;fontSize=12;fontStyle=0;aspect=fixed;pointerEvents=1;shape=mxgraph.aws4.application_load_balancer;" vertex="1" parent="1">
          <mxGeometry x="650" y="166" width="78" height="78" as="geometry" />
        </mxCell>
        <mxCell id="2mUuE8GtbuamiR8TgT-m-6" value="API Gateway" style="sketch=0;points=[[0,0,0],[0.25,0,0],[0.5,0,0],[0.75,0,0],[1,0,0],[0,1,0],[0.25,1,0],[0.5,1,0],[0.75,1,0],[1,1,0],[0,0.25,0],[0,0.5,0],[0,0.75,0],[1,0.25,0],[1,0.5,0],[1,0.75,0]];outlineConnect=0;fontColor=#232F3E;fillColor=#E7157B;strokeColor=#ffffff;dashed=0;verticalLabelPosition=bottom;verticalAlign=top;align=center;html=1;fontSize=12;fontStyle=0;aspect=fixed;shape=mxgraph.aws4.resourceIcon;resIcon=mxgraph.aws4.api_gateway;" vertex="1" parent="1">
          <mxGeometry x="650" y="320" width="78" height="78" as="geometry" />
        </mxCell>
        <mxCell id="2mUuE8GtbuamiR8TgT-m-7" value="" style="sketch=0;points=[[0,0,0],[0.25,0,0],[0.5,0,0],[0.75,0,0],[1,0,0],[0,1,0],[0.25,1,0],[0.5,1,0],[0.75,1,0],[1,1,0],[0,0.25,0],[0,0.5,0],[0,0.75,0],[1,0.25,0],[1,0.5,0],[1,0.75,0]];outlineConnect=0;fontColor=#232F3E;fillColor=#ED7100;strokeColor=#ffffff;dashed=0;verticalLabelPosition=bottom;verticalAlign=top;align=center;html=1;fontSize=12;fontStyle=0;aspect=fixed;shape=mxgraph.aws4.resourceIcon;resIcon=mxgraph.aws4.lambda;" vertex="1" parent="1">
          <mxGeometry x="880" y="150" width="30" height="30" as="geometry" />
        </mxCell>
        <mxCell id="2mUuE8GtbuamiR8TgT-m-8" value="" style="sketch=0;points=[[0,0,0],[0.25,0,0],[0.5,0,0],[0.75,0,0],[1,0,0],[0,1,0],[0.25,1,0],[0.5,1,0],[0.75,1,0],[1,1,0],[0,0.25,0],[0,0.5,0],[0,0.75,0],[1,0.25,0],[1,0.5,0],[1,0.75,0]];outlineConnect=0;fontColor=#232F3E;fillColor=#ED7100;strokeColor=#ffffff;dashed=0;verticalLabelPosition=bottom;verticalAlign=top;align=center;html=1;fontSize=12;fontStyle=0;aspect=fixed;shape=mxgraph.aws4.resourceIcon;resIcon=mxgraph.aws4.lambda;" vertex="1" parent="1">
          <mxGeometry x="880" y="190" width="30" height="30" as="geometry" />
        </mxCell>
        <mxCell id="2mUuE8GtbuamiR8TgT-m-9" value="" style="sketch=0;points=[[0,0,0],[0.25,0,0],[0.5,0,0],[0.75,0,0],[1,0,0],[0,1,0],[0.25,1,0],[0.5,1,0],[0.75,1,0],[1,1,0],[0,0.25,0],[0,0.5,0],[0,0.75,0],[1,0.25,0],[1,0.5,0],[1,0.75,0]];outlineConnect=0;fontColor=#232F3E;fillColor=#ED7100;strokeColor=#ffffff;dashed=0;verticalLabelPosition=bottom;verticalAlign=top;align=center;html=1;fontSize=12;fontStyle=0;aspect=fixed;shape=mxgraph.aws4.resourceIcon;resIcon=mxgraph.aws4.lambda;" vertex="1" parent="1">
          <mxGeometry x="880" y="228" width="30" height="30" as="geometry" />
        </mxCell>
        <mxCell id="2mUuE8GtbuamiR8TgT-m-21" value="" style="group" vertex="1" connectable="0" parent="1">
          <mxGeometry x="738" y="167.13" width="132" height="75.75" as="geometry" />
        </mxCell>
        <mxCell id="2mUuE8GtbuamiR8TgT-m-13" value="" style="endArrow=classic;html=1;rounded=0;" edge="1" parent="2mUuE8GtbuamiR8TgT-m-21">
          <mxGeometry width="50" height="50" relative="1" as="geometry">
            <mxPoint y="30" as="sourcePoint" />
            <mxPoint x="132" y="30.5" as="targetPoint" />
          </mxGeometry>
        </mxCell>
        <mxCell id="2mUuE8GtbuamiR8TgT-m-14" value="" style="endArrow=classic;html=1;rounded=0;" edge="1" parent="2mUuE8GtbuamiR8TgT-m-21">
          <mxGeometry width="50" height="50" relative="1" as="geometry">
            <mxPoint y="44.5" as="sourcePoint" />
            <mxPoint x="132" y="45" as="targetPoint" />
          </mxGeometry>
        </mxCell>
        <mxCell id="2mUuE8GtbuamiR8TgT-m-17" value="" style="endArrow=classic;html=1;rounded=0;" edge="1" parent="2mUuE8GtbuamiR8TgT-m-21">
          <mxGeometry width="50" height="50" relative="1" as="geometry">
            <mxPoint as="sourcePoint" />
            <mxPoint x="132" y="0.5" as="targetPoint" />
          </mxGeometry>
        </mxCell>
        <mxCell id="2mUuE8GtbuamiR8TgT-m-18" value="" style="endArrow=classic;html=1;rounded=0;" edge="1" parent="2mUuE8GtbuamiR8TgT-m-21">
          <mxGeometry width="50" height="50" relative="1" as="geometry">
            <mxPoint y="14.5" as="sourcePoint" />
            <mxPoint x="132" y="15" as="targetPoint" />
          </mxGeometry>
        </mxCell>
        <mxCell id="2mUuE8GtbuamiR8TgT-m-19" value="" style="endArrow=classic;html=1;rounded=0;" edge="1" parent="2mUuE8GtbuamiR8TgT-m-21">
          <mxGeometry width="50" height="50" relative="1" as="geometry">
            <mxPoint y="60.75" as="sourcePoint" />
            <mxPoint x="132" y="61.25" as="targetPoint" />
          </mxGeometry>
        </mxCell>
        <mxCell id="2mUuE8GtbuamiR8TgT-m-20" value="" style="endArrow=classic;html=1;rounded=0;" edge="1" parent="2mUuE8GtbuamiR8TgT-m-21">
          <mxGeometry width="50" height="50" relative="1" as="geometry">
            <mxPoint y="75.25" as="sourcePoint" />
            <mxPoint x="132" y="75.75" as="targetPoint" />
          </mxGeometry>
        </mxCell>
        <mxCell id="2mUuE8GtbuamiR8TgT-m-22" value="" style="group" vertex="1" connectable="0" parent="1">
          <mxGeometry x="550" y="167.125" width="82" height="75.75" as="geometry" />
        </mxCell>
        <mxCell id="2mUuE8GtbuamiR8TgT-m-23" value="" style="endArrow=classic;html=1;rounded=0;" edge="1" parent="2mUuE8GtbuamiR8TgT-m-22">
          <mxGeometry width="50" height="50" relative="1" as="geometry">
            <mxPoint y="30" as="sourcePoint" />
            <mxPoint x="82" y="30.5" as="targetPoint" />
          </mxGeometry>
        </mxCell>
        <mxCell id="2mUuE8GtbuamiR8TgT-m-24" value="" style="endArrow=classic;html=1;rounded=0;" edge="1" parent="2mUuE8GtbuamiR8TgT-m-22">
          <mxGeometry width="50" height="50" relative="1" as="geometry">
            <mxPoint y="44.5" as="sourcePoint" />
            <mxPoint x="82" y="45" as="targetPoint" />
          </mxGeometry>
        </mxCell>
        <mxCell id="2mUuE8GtbuamiR8TgT-m-25" value="" style="endArrow=classic;html=1;rounded=0;" edge="1" parent="2mUuE8GtbuamiR8TgT-m-22">
          <mxGeometry width="50" height="50" relative="1" as="geometry">
            <mxPoint as="sourcePoint" />
            <mxPoint x="82" y="0.5" as="targetPoint" />
          </mxGeometry>
        </mxCell>
        <mxCell id="2mUuE8GtbuamiR8TgT-m-26" value="" style="endArrow=classic;html=1;rounded=0;" edge="1" parent="2mUuE8GtbuamiR8TgT-m-22">
          <mxGeometry width="50" height="50" relative="1" as="geometry">
            <mxPoint y="14.5" as="sourcePoint" />
            <mxPoint x="82" y="15" as="targetPoint" />
          </mxGeometry>
        </mxCell>
        <mxCell id="2mUuE8GtbuamiR8TgT-m-27" value="" style="endArrow=classic;html=1;rounded=0;" edge="1" parent="2mUuE8GtbuamiR8TgT-m-22">
          <mxGeometry width="50" height="50" relative="1" as="geometry">
            <mxPoint y="60.75" as="sourcePoint" />
            <mxPoint x="82" y="61.25" as="targetPoint" />
          </mxGeometry>
        </mxCell>
        <mxCell id="2mUuE8GtbuamiR8TgT-m-28" value="" style="endArrow=classic;html=1;rounded=0;" edge="1" parent="2mUuE8GtbuamiR8TgT-m-22">
          <mxGeometry width="50" height="50" relative="1" as="geometry">
            <mxPoint y="75.25" as="sourcePoint" />
            <mxPoint x="82" y="75.75" as="targetPoint" />
          </mxGeometry>
        </mxCell>
        <mxCell id="2mUuE8GtbuamiR8TgT-m-30" value="" style="sketch=0;points=[[0,0,0],[0.25,0,0],[0.5,0,0],[0.75,0,0],[1,0,0],[0,1,0],[0.25,1,0],[0.5,1,0],[0.75,1,0],[1,1,0],[0,0.25,0],[0,0.5,0],[0,0.75,0],[1,0.25,0],[1,0.5,0],[1,0.75,0]];outlineConnect=0;fontColor=#232F3E;fillColor=#ED7100;strokeColor=#ffffff;dashed=0;verticalLabelPosition=bottom;verticalAlign=top;align=center;html=1;fontSize=12;fontStyle=0;aspect=fixed;shape=mxgraph.aws4.resourceIcon;resIcon=mxgraph.aws4.lambda;" vertex="1" parent="1">
          <mxGeometry x="880" y="344" width="30" height="30" as="geometry" />
        </mxCell>
        <mxCell id="2mUuE8GtbuamiR8TgT-m-31" value="" style="sketch=0;points=[[0,0,0],[0.25,0,0],[0.5,0,0],[0.75,0,0],[1,0,0],[0,1,0],[0.25,1,0],[0.5,1,0],[0.75,1,0],[1,1,0],[0,0.25,0],[0,0.5,0],[0,0.75,0],[1,0.25,0],[1,0.5,0],[1,0.75,0]];outlineConnect=0;fontColor=#232F3E;fillColor=#ED7100;strokeColor=#ffffff;dashed=0;verticalLabelPosition=bottom;verticalAlign=top;align=center;html=1;fontSize=12;fontStyle=0;aspect=fixed;shape=mxgraph.aws4.resourceIcon;resIcon=mxgraph.aws4.lambda;" vertex="1" parent="1">
          <mxGeometry x="880" y="496" width="30" height="30" as="geometry" />
        </mxCell>
        <mxCell id="2mUuE8GtbuamiR8TgT-m-33" style="edgeStyle=orthogonalEdgeStyle;rounded=0;orthogonalLoop=1;jettySize=auto;html=1;entryX=0;entryY=0.5;entryDx=0;entryDy=0;entryPerimeter=0;" edge="1" parent="1" source="2mUuE8GtbuamiR8TgT-m-1" target="2mUuE8GtbuamiR8TgT-m-6">
          <mxGeometry relative="1" as="geometry" />
        </mxCell>
        <mxCell id="2mUuE8GtbuamiR8TgT-m-34" value="&amp;nbsp;THROTTLE!&amp;nbsp;" style="edgeStyle=orthogonalEdgeStyle;rounded=0;orthogonalLoop=1;jettySize=auto;html=1;entryX=0;entryY=0.5;entryDx=0;entryDy=0;entryPerimeter=0;fontColor=#FF0000;fontStyle=1" edge="1" parent="1" source="2mUuE8GtbuamiR8TgT-m-6" target="2mUuE8GtbuamiR8TgT-m-30">
          <mxGeometry relative="1" as="geometry" />
        </mxCell>
        <mxCell id="2mUuE8GtbuamiR8TgT-m-36" value="1000 concurrent&lt;div&gt;executions&lt;/div&gt;" style="text;html=1;align=center;verticalAlign=middle;resizable=0;points=[];autosize=1;strokeColor=none;fillColor=none;fontSize=20;" vertex="1" parent="1">
          <mxGeometry x="920" y="180" width="170" height="60" as="geometry" />
        </mxCell>
      </root>
    </mxGraphModel>
  </diagram>
</mxfile>
